# xmcd
#
# Track frame offsets: 
#        150
#        18606
#        43331
#        62950
#        83513
#        101572
#        118883
#        136508
#        154784
#        176760
#        200631
#        226712
#        243716
#        260442
#
# Disc length: 3718 seconds
#
# Revision: 0
# Processed by: cddbd v1.5.2PL0 Copyright (c) Steve Scherf et al.
# Submitted via: ExactAudioCopyFreeDBPlugin 1.0
#
DISCID=c00e840e
DTITLE=Quarter To Africa - The Layback
DYEAR=2017
DGENRE=Afrobeat
TTITLE0=Tahabil Tirbach
TTITLE1=Drop Your Fears
TTITLE2=Connect
TTITLE3=Afrab
TTITLE4=The Layback
TTITLE5=Yalla bo Navi et Ze
TTITLE6=Like A Child
TTITLE7=Halij’El Alam
TTITLE8=Voodoo Child (Hendrix AfRab cover)
TTITLE9=Oto Sipur
TTITLE10=Yeshuato (Live at "the Zone" TLV. Ft. Avishai Cohen)
TTITLE11=Gam ki Elech
TTITLE12=Tahabil Tirbach (Radio edit)
TTITLE13=Drop Your Fears (Radio edit)
EXTD=
EXTT0=
EXTT1=
EXTT2=
EXTT3=
EXTT4=
EXTT5=
EXTT6=
EXTT7=
EXTT8=
EXTT9=
EXTT10=
EXTT11=
EXTT12=
EXTT13=
PLAYORDER=
